<svg xmlns="http://www.w3.org/2000/svg" width="234.882" height="108.715" viewBox="0 0 234.882 108.715">
  <g id="Layer0_0_FILL" transform="translate(0 0)">
    <path id="Caminho_1" data-name="Caminho 1" d="M143.547,123.961H128.6v39.657a20.44,20.44,0,0,0,1.328,7.666,15.918,15.918,0,0,0,3.34,5.375,13.576,13.576,0,0,0,4.8,3.233,15.032,15.032,0,0,0,5.482,1.071,27.544,27.544,0,0,0,4.925-.45,26.336,26.336,0,0,0,2.805-.621c.856-.236,2.719-.942,5.632-2.141,2.719-1.135,4.368-1.842,4.925-2.163l2.484-1.156a16.989,16.989,0,0,0,3.105,5.1h12.612a58.77,58.77,0,0,1-1.735-13.533V123.961H163.225v43.876a7.245,7.245,0,0,0-1.306-1.028,3.786,3.786,0,0,0-2.313-.514c-.471.043-.878.086-1.263.128l-8.565,3.019a8.267,8.267,0,0,1-1.306.107,4.227,4.227,0,0,1-3.854-1.713,8.358,8.358,0,0,1-1.071-4.411V123.961m56.188,10.428a35.837,35.837,0,0,1,5.782-.535c3.769,0,6.681,1.113,8.758,3.319a12.723,12.723,0,0,1,3.041,8.929v16.253a27.484,27.484,0,0,1-5.953,5.418,11.029,11.029,0,0,1-6.21,2.1,6.641,6.641,0,0,1-4.8-1.906,6.259,6.259,0,0,1-1.97-4.668,6.832,6.832,0,0,1,1.82-4.732c1.221-1.37,3.191-2.248,5.867-2.677a7.337,7.337,0,0,0,5.139-3.448,18.5,18.5,0,0,0,2.206-6.552,68.869,68.869,0,0,0-14.218,2.42,29.984,29.984,0,0,0-9.015,4.3,13.832,13.832,0,0,0-4.775,5.653A15.489,15.489,0,0,0,184,164.71a16.278,16.278,0,0,0,1.156,6.1,14.916,14.916,0,0,0,3.319,5.182,16.721,16.721,0,0,0,5.225,3.6,17.1,17.1,0,0,0,7,1.37,21.824,21.824,0,0,0,7.709-1.37c2.463-.878,5.289-2.805,8.5-5.739l1.263-1.82.364,2.163a22,22,0,0,0,1.5,3.019,7,7,0,0,0,2.441,2.313h11.071a48.466,48.466,0,0,1-1.392-7.131,62.8,62.8,0,0,1-.364-6.4V146.1q0-11.37-6.188-17.323c-4.09-4-9.979-6-17.623-6a49.024,49.024,0,0,0-8.8.942,47.808,47.808,0,0,0-9.936,3.169l3.683,9.422a40.879,40.879,0,0,1,6.809-1.927m54.326-10.428H239.007v55.568h15.053V123.961m1.285-16.124a8.854,8.854,0,0,0-2.527-6.4,8.866,8.866,0,0,0-12.612,0,8.942,8.942,0,0,0-2.527,6.4,8.834,8.834,0,1,0,17.666,0Z" transform="translate(-128.536 -97.472)" fill="#fff"/>
    <path id="Caminho_2" data-name="Caminho 2" d="M296.758,119.088a8.31,8.31,0,0,0-4.133.985,12.189,12.189,0,0,0-3.041,2.57,11.9,11.9,0,0,0-2.141,3.426,33.775,33.775,0,0,0-1.435,3.662h15.46V119.088h-4.711m1.328-25.782a35.217,35.217,0,0,0-6.424-.707,26.547,26.547,0,0,0-9.722,1.692A21.526,21.526,0,0,0,274.553,99a20.33,20.33,0,0,0-4.711,7.43,26.361,26.361,0,0,0-1.692,9.657v3l-8.929,2.163v8.48h8.929v44.925h14.2V116.09c0-3.747.942-6.724,2.827-8.972,1.906-2.27,4.625-3.4,8.137-3.4a23.957,23.957,0,0,1,4.047.407c1.478.278,3.233.707,5.289,1.306l3.34-9.593a39.465,39.465,0,0,0-7.9-2.527m65.1,25.782H347.808l-15.889,51.563c-1.092,3.212-2.1,6.039-3,8.5a27.427,27.427,0,0,1-2.934,6.146,12.315,12.315,0,0,1-3.683,3.747,7.73,7.73,0,0,1-2.955,1.135c-.193.043-.385.064-.578.107l-.964.064H128.3v10.964H317.958c.278,0,.557,0,.814-.021a2.631,2.631,0,0,0,.578-.043,19.521,19.521,0,0,0,7.366-1.734,18.646,18.646,0,0,0,6.574-5.182,40.868,40.868,0,0,0,5.161-8.672c1.606-3.448,3.3-7.538,5.075-12.227l19.657-54.347m-32.891,33.019a28.59,28.59,0,0,0-1.2-7.687l-7.516-25.332h-16.1l20,54.133a28.157,28.157,0,0,0,2.527-5.7,55.3,55.3,0,0,0,1.777-7.473A44.115,44.115,0,0,0,330.292,152.108Z" transform="translate(-128.3 -92.6)" fill="#fff"/>
  </g>
</svg>
