<?xml version="1.0" encoding="UTF-8"?> <!-- Generator: Adobe Illustrator 22.1.0, SVG Export Plug-In . SVG Version: 6.00 Build 0) --> <svg xmlns="http://www.w3.org/2000/svg" xmlns:xlink="http://www.w3.org/1999/xlink" id="Camada_1" x="0px" y="0px" viewBox="0 0 1096.9 507.5" style="enable-background:new 0 0 1096.9 507.5;" xml:space="preserve"> <style type="text/css"> .st0{fill:#000080;} .st1{fill:#FF9200;} </style> <title>logoUaify_vetor2</title> <g id="Layer0_0_FILL"> <path class="st0" d="M70.1,123.6H0.3v185.2c0,66.6,54.9,80.7,88.8,80.9c7.6,0,16.3,0.3,24-1c42.3-7.2,54.8-40.4,54.8-40.4 c-0.9,11.8,5,31.2,13.7,34.8h58.9c-5.4-22.7-8.1-43.8-8.1-63.2V123.6H162v158.5c-6.9,19.8-17.9,33.1-33.2,40.5 c-9.8,4.7-38.7,11.2-53.7-10.1c-3.3-5.4-5-12.3-5-20.6L70.1,123.6 M332.5,172.3c8.9-1.6,17.9-2.4,27-2.5c17.6,0,31.2,5.2,40.9,15.5 c9.5,10.4,14.2,24.3,14.2,41.6v75.9c-8,9.8-17.3,18.3-27.8,25.4c-9.6,6.5-19.3,9.8-29,9.8c-8.3,0.1-16.4-3-22.4-8.8 c-6-5.6-9.4-13.6-9.2-21.8c-0.1-8.2,3-16.1,8.6-22.2c5.7-6.4,14.9-10.5,27.5-12.5c10.8-2.1,18.8-7.5,24-16.1 c5.2-8.6,8.6-18.9,10.3-30.7c-26.4,2.1-48.6,5.8-66.4,11.2c-17.7,5.6-31.8,12.3-42.1,20.1c-10.7,7.8-18.1,16.6-22.3,26.4 c-4.4,9.4-6.6,19.7-6.6,30.2c-0.1,9.7,1.8,19.4,5.4,28.5c3.4,9.1,8.7,17.3,15.5,24.2c7,7.1,15.3,12.8,24.5,16.8 c9.7,4.3,20.6,6.4,32.7,6.4c12.3,0,24.4-2.1,36-6.4c11.5-4.1,24.7-13.1,39.7-26.8l6-8.5l1.7,10c2,4.9,4.3,9.6,7,14.1 c2.9,4.5,6.8,8.2,11.4,10.8h51.7c-3-10.9-5.2-22.1-6.5-33.3c-1.1-9.9-1.7-19.9-1.7-29.9V227c0-35.4-9.6-62.4-28.9-80.9 c-19.1-18.7-46.6-28-82.4-28c-11.8,0-25.5,1.5-41.1,4.4c-16,3.2-31.5,8.2-46.4,14.8l17.2,44C311,177.4,321.6,174.4,332.5,172.3 M586.3,123.6H516v259.5h70.3V123.6 M592.3,48.3c0-11.8-3.9-21.7-11.8-29.9c-7.8-8.2-17.7-12.2-29.5-12.3 c-11.8,0-21.6,4.1-29.4,12.3c-7.8,8.2-11.8,18.1-11.7,29.9c0,11.8,3.9,21.6,11.8,29.4c7.8,7.8,17.6,11.8,29.4,11.8 c11.8,0,21.6-3.9,29.5-11.8C588.3,69.9,592.3,60.1,592.3,48.3L592.3,48.3z"></path> <path class="st1" d="M786.8,123.6c-6.7-0.1-13.4,1.4-19.3,4.6c-5.4,3.2-10.1,7.3-14.2,12c-4.2,4.8-7.6,10.2-10,16 c-2.5,5.5-4.8,11.2-6.7,17h72.3v-49.6H786.8 M793,3.3c-9.9-2-19.9-3.1-30-3.3c-16.7,0-31.8,2.6-45.4,7.8 c-12.9,4.9-24.7,12.3-34.5,22c-9.8,9.8-17.3,21.6-22,34.7c-5.3,13.6-7.9,28.6-7.9,45.1v14l-41.7,10v39.7h41.7v209.8h66.3V109.6 c0-17.5,4.4-31.4,13.2-41.9c8.9-10.6,21.6-15.9,38-15.9c6.3,0.1,12.7,0.7,18.9,1.9c6.9,1.3,15.1,3.4,24.7,6.1L829.9,15 C818,9.8,805.6,5.9,793,3.3 M1096.9,123.7h-71.8l-74.2,240.8c-5.1,15-9.8,28.2-14,39.7c-4,11.5-8.6,21-13.7,28.7 c-5.1,7.7-10.9,13.5-17.3,17.4c-4.2,2.7-8.9,4.5-13.8,5.3l-2.7,0.5c-1.5,0.1-3,0.2-4.5,0.3H0v51.2h885.8c1.3,0,2.5,0,3.8-0.1 c0.9,0,1.8,0,2.7-0.2c13.4-0.8,24.9-3.5,34.4-8.1c11.9-5.6,22.4-13.9,30.7-24.2c8.7-10.8,16.7-24.3,24.1-40.5 c7.5-16.1,15.4-35.2,23.7-57.1L1096.9,123.7 M943.3,277.8c-0.2-12.1-2.1-24.2-5.6-35.8l-35.1-118.3h-75.2l93.4,252.9 c4.3-7,8.2-15.9,11.8-26.6c3.6-11.4,6.4-23.1,8.3-34.9C942.8,302.6,943.7,290.2,943.3,277.8z"></path> </g> </svg> 